<svg xmlns="http://www.w3.org/2000/svg" viewBox="0 0 760 880" width="760" height="880" font-family="system-ui,sans-serif">
<rect width="100%" height="100%" fill="#F5F4F0"/>
<text x="380.0" y="30" text-anchor="middle" fill="#1E293B" font-size="18" font-weight="700">KMP Impact . app.cash.sqldelight</text>
<text x="380.0" y="52" text-anchor="middle" fill="#64748b" font-size="12">2.2.1 -&gt; 2.3.2 . 169 archivos</text>
<path d="M 380.00 350.00 A 100.00 100.00 0 1 1 301.82 512.35 L 325.27 493.64 A 70.00 70.00 0 1 0 380.00 380.00 Z" fill="#B91C1C" fill-opacity="1"/>
<path d="M 380.00 318.00 A 132.00 132.00 0 1 1 276.80 532.30 L 300.25 513.60 A 102.00 102.00 0 1 0 380.00 348.00 Z" fill="#B91C1C" fill-opacity="1"/>
<path d="M 380.00 286.00 A 164.00 164.00 0 1 1 251.78 552.25 L 275.23 533.55 A 134.00 134.00 0 1 0 380.00 316.00 Z" fill="#B91C1C" fill-opacity="1"/>
<path d="M 380.00 254.00 A 196.00 196.00 0 1 1 226.76 572.20 L 250.22 553.50 A 166.00 166.00 0 1 0 380.00 284.00 Z" fill="#B91C1C" fill-opacity="1"/>
<path d="M 380.00 222.00 A 228.00 228.00 0 1 1 281.07 655.42 L 294.09 628.39 A 198.00 198.00 0 1 0 380.00 252.00 Z" fill="#B91C1C" fill-opacity="1"/>
<path d="M 281.07 655.42 A 228.00 228.00 0 0 1 201.74 592.16 L 225.20 573.45 A 198.00 198.00 0 0 0 294.09 628.39 Z" fill="#B91C1C" fill-opacity="1"/>
<path d="M 301.82 512.35 A 100.00 100.00 0 0 1 289.90 406.61 L 316.93 419.63 A 70.00 70.00 0 0 0 325.27 493.64 Z" fill="#B91C1C" fill-opacity="1"/>
<path d="M 276.80 532.30 A 132.00 132.00 0 0 1 261.07 392.73 L 288.10 405.74 A 102.00 102.00 0 0 0 300.25 513.60 Z" fill="#B91C1C" fill-opacity="1"/>
<path d="M 251.78 552.25 A 164.00 164.00 0 0 1 232.24 378.84 L 259.27 391.86 A 134.00 134.00 0 0 0 275.23 533.55 Z" fill="#B91C1C" fill-opacity="1"/>
<path d="M 226.76 572.20 A 196.00 196.00 0 0 1 203.41 364.96 L 230.44 377.98 A 166.00 166.00 0 0 0 250.22 553.50 Z" fill="#B91C1C" fill-opacity="1"/>
<path d="M 201.74 592.16 A 228.00 228.00 0 0 1 157.72 500.73 L 186.96 494.06 A 198.00 198.00 0 0 0 225.20 573.45 Z" fill="#B91C1C" fill-opacity="1"/>
<path d="M 157.72 500.73 A 228.00 228.00 0 0 1 157.72 399.27 L 186.96 405.94 A 198.00 198.00 0 0 0 186.96 494.06 Z" fill="#B91C1C" fill-opacity="1"/>
<path d="M 157.72 399.27 A 228.00 228.00 0 0 1 174.58 351.07 L 201.61 364.09 A 198.00 198.00 0 0 0 186.96 405.94 Z" fill="#1D4ED8" fill-opacity="1"/>
<path d="M 289.90 406.61 A 100.00 100.00 0 0 1 357.75 352.51 L 364.42 381.76 A 70.00 70.00 0 0 0 316.93 419.63 Z" fill="#B91C1C" fill-opacity="1"/>
<path d="M 261.07 392.73 A 132.00 132.00 0 0 1 350.63 321.31 L 357.30 350.56 A 102.00 102.00 0 0 0 288.10 405.74 Z" fill="#B91C1C" fill-opacity="1"/>
<path d="M 232.24 378.84 A 164.00 164.00 0 0 1 343.51 290.11 L 350.18 319.36 A 134.00 134.00 0 0 0 259.27 391.86 Z" fill="#B91C1C" fill-opacity="1"/>
<path d="M 203.41 364.96 A 196.00 196.00 0 0 1 336.39 258.91 L 343.06 288.16 A 166.00 166.00 0 0 0 230.44 377.98 Z" fill="#B91C1C" fill-opacity="1"/>
<path d="M 174.58 351.07 A 228.00 228.00 0 0 1 237.84 271.74 L 256.55 295.20 A 198.00 198.00 0 0 0 201.61 364.09 Z" fill="#B91C1C" fill-opacity="1"/>
<path d="M 237.84 271.74 A 228.00 228.00 0 0 1 329.27 227.72 L 335.94 256.96 A 198.00 198.00 0 0 0 256.55 295.20 Z" fill="#B91C1C" fill-opacity="1"/>
<path d="M 357.75 352.51 A 100.00 100.00 0 0 1 380.00 350.00 L 380.00 380.00 A 70.00 70.00 0 0 0 364.42 381.76 Z" fill="#1D4ED8" fill-opacity="1"/>
<path d="M 350.63 321.31 A 132.00 132.00 0 0 1 380.00 318.00 L 380.00 348.00 A 102.00 102.00 0 0 0 357.30 350.56 Z" fill="#1D4ED8" fill-opacity="1"/>
<path d="M 343.51 290.11 A 164.00 164.00 0 0 1 380.00 286.00 L 380.00 316.00 A 134.00 134.00 0 0 0 350.18 319.36 Z" fill="#1D4ED8" fill-opacity="1"/>
<path d="M 336.39 258.91 A 196.00 196.00 0 0 1 380.00 254.00 L 380.00 284.00 A 166.00 166.00 0 0 0 343.06 288.16 Z" fill="#1D4ED8" fill-opacity="1"/>
<path d="M 329.27 227.72 A 228.00 228.00 0 0 1 380.00 222.00 L 380.00 252.00 A 198.00 198.00 0 0 0 335.94 256.96 Z" fill="#1D4ED8" fill-opacity="1"/>
<text x="456.6" y="486.9" text-anchor="middle" dominant-baseline="middle" transform="rotate(25.7 456.6 486.9)" font-size="11" font-weight="700" fill="#FFFFFF">commonMain</text>
<text x="485.4" y="500.8" text-anchor="middle" dominant-baseline="middle" transform="rotate(25.7 485.4 500.8)" font-size="11" font-weight="700" fill="#FFFFFF">co</text>
<text x="514.2" y="514.6" text-anchor="middle" dominant-baseline="middle" transform="rotate(25.7 514.2 514.6)" font-size="11" font-weight="700" fill="#FFFFFF">touchlab</text>
<text x="543.1" y="528.5" text-anchor="middle" dominant-baseline="middle" transform="rotate(25.7 543.1 528.5)" font-size="11" font-weight="700" fill="#FFFFFF">droidcon</text>
<text x="587.7" y="497.4" text-anchor="middle" dominant-baseline="middle" transform="rotate(12.9 587.7 497.4)" font-size="11" font-weight="700" fill="#FFFFFF">domain</text>
<text x="434.3" y="212.1" text-anchor="start" dominant-baseline="middle" transform="rotate(-77.1 434.3 212.1)" font-size="10" font-weight="600" fill="#B91C1C" opacity="0.85">SqlDelightConfere.</text>
<text x="532.1" y="259.2" text-anchor="start" dominant-baseline="middle" transform="rotate(-51.4 532.1 259.2)" font-size="10" font-weight="600" fill="#B91C1C" opacity="0.85">SqlDelightDriverF.</text>
<text x="599.8" y="344.1" text-anchor="start" dominant-baseline="middle" transform="rotate(-25.7 599.8 344.1)" font-size="10" font-weight="600" fill="#B91C1C" opacity="0.85">SqlDelightProfile.</text>
<text x="624.0" y="450.0" text-anchor="start" dominant-baseline="middle" transform="rotate(0.0 624.0 450.0)" font-size="10" font-weight="600" fill="#B91C1C" opacity="0.85">SqlDelightRoomRep.</text>
<text x="599.8" y="555.9" text-anchor="start" dominant-baseline="middle" transform="rotate(25.7 599.8 555.9)" font-size="10" font-weight="600" fill="#B91C1C" opacity="0.85">SqlDelightSession.</text>
<text x="532.1" y="640.8" text-anchor="start" dominant-baseline="middle" transform="rotate(51.4 532.1 640.8)" font-size="10" font-weight="600" fill="#B91C1C" opacity="0.85">SqlDelightSponsor.</text>
<text x="434.3" y="687.9" text-anchor="start" dominant-baseline="middle" transform="rotate(77.1 434.3 687.9)" font-size="10" font-weight="600" fill="#B91C1C" opacity="0.85">SqlDelightSponsor.</text>
<text x="325.7" y="687.9" text-anchor="end" dominant-baseline="middle" transform="rotate(282.9 325.7 687.9)" font-size="10" font-weight="600" fill="#B91C1C" opacity="0.85">InstantSqlDelight.</text>
<text x="247.2" y="616.5" text-anchor="middle" dominant-baseline="middle" transform="rotate(308.6 247.2 616.5)" font-size="11" font-weight="700" fill="#FFFFFF">Koin</text>
<text x="295.5" y="459.5" text-anchor="middle" dominant-baseline="middle" transform="rotate(353.6 295.5 459.5)" font-size="11" font-weight="700" fill="#FFFFFF">iosMain</text>
<text x="263.7" y="463.1" text-anchor="middle" dominant-baseline="middle" transform="rotate(353.6 263.7 463.1)" font-size="11" font-weight="700" fill="#FFFFFF">co</text>
<text x="231.9" y="466.7" text-anchor="middle" dominant-baseline="middle" transform="rotate(353.6 231.9 466.7)" font-size="11" font-weight="700" fill="#FFFFFF">touchlab</text>
<text x="200.1" y="470.3" text-anchor="middle" dominant-baseline="middle" transform="rotate(353.6 200.1 470.3)" font-size="11" font-weight="700" fill="#FFFFFF">droidcon</text>
<text x="188.1" y="542.4" text-anchor="middle" dominant-baseline="middle" transform="rotate(334.3 188.1 542.4)" font-size="11" font-weight="700" fill="#FFFFFF">Koin.i.</text>
<text x="167.0" y="450.0" text-anchor="middle" dominant-baseline="middle" transform="rotate(360.0 167.0 450.0)" font-size="11" font-weight="700" fill="#FFFFFF">domain</text>
<text x="136.0" y="450.0" text-anchor="end" dominant-baseline="middle" transform="rotate(360.0 136.0 450.0)" font-size="10" font-weight="600" fill="#B91C1C" opacity="0.85">SqlDelightDriverF.</text>
<text x="179.0" y="379.7" text-anchor="middle" dominant-baseline="middle" transform="rotate(379.3 179.0 379.7)" font-size="11" font-weight="700" fill="#FFFFFF">ios</text>
<text x="149.7" y="369.4" text-anchor="end" dominant-baseline="middle" transform="rotate(379.3 149.7 369.4)" font-size="10" font-weight="600" fill="#1D4ED8" opacity="0.85">DependencyInjecti.</text>
<text x="327.0" y="383.5" text-anchor="middle" dominant-baseline="middle" transform="rotate(411.4 327.0 383.5)" font-size="11" font-weight="700" fill="#FFFFFF">andro.</text>
<text x="307.1" y="358.5" text-anchor="middle" dominant-baseline="middle" transform="rotate(411.4 307.1 358.5)" font-size="11" font-weight="700" fill="#FFFFFF">co</text>
<text x="287.1" y="333.5" text-anchor="middle" dominant-baseline="middle" transform="rotate(411.4 287.1 333.5)" font-size="11" font-weight="700" fill="#FFFFFF">touchlab</text>
<text x="267.1" y="308.5" text-anchor="middle" dominant-baseline="middle" transform="rotate(411.4 267.1 308.5)" font-size="11" font-weight="700" fill="#FFFFFF">droidcon</text>
<text x="213.5" y="317.2" text-anchor="middle" dominant-baseline="middle" transform="rotate(398.6 213.5 317.2)" font-size="11" font-weight="700" fill="#FFFFFF">Koin.a.</text>
<text x="287.6" y="258.1" text-anchor="middle" dominant-baseline="middle" transform="rotate(424.3 287.6 258.1)" font-size="11" font-weight="700" fill="#FFFFFF">domain</text>
<text x="274.1" y="230.2" text-anchor="end" dominant-baseline="middle" transform="rotate(424.3 274.1 230.2)" font-size="10" font-weight="600" fill="#B91C1C" opacity="0.85">SqlDelightDriverF.</text>
<text x="370.5" y="365.5" text-anchor="middle" dominant-baseline="middle" transform="rotate(443.6 370.5 365.5)" font-size="11" font-weight="700" fill="#FFFFFF">main</text>
<text x="366.9" y="333.7" text-anchor="middle" dominant-baseline="middle" transform="rotate(443.6 366.9 333.7)" font-size="11" font-weight="700" fill="#FFFFFF">java</text>
<text x="363.3" y="301.9" text-anchor="middle" dominant-baseline="middle" transform="rotate(443.6 363.3 301.9)" font-size="11" font-weight="700" fill="#FFFFFF">co</text>
<text x="359.7" y="270.1" text-anchor="middle" dominant-baseline="middle" transform="rotate(443.6 359.7 270.1)" font-size="11" font-weight="700" fill="#FFFFFF">tou.</text>
<text x="356.2" y="238.3" text-anchor="middle" dominant-baseline="middle" transform="rotate(443.6 356.2 238.3)" font-size="11" font-weight="700" fill="#FFFFFF">dro.</text>
<text x="352.7" y="207.5" text-anchor="end" dominant-baseline="middle" transform="rotate(443.6 352.7 207.5)" font-size="10" font-weight="600" fill="#1D4ED8" opacity="0.85">MainApp</text>
<circle cx="380.0" cy="450.0" r="70" fill="#F5F4F0" stroke="#D8D6D0"/><text x="380.0" y="454.0" text-anchor="middle" font-size="13" font-weight="700" fill="#64748B">src</text>
<rect x="20" y="850" width="14" height="14" rx="3" fill="#B91C1C"/><text x="40" y="861" fill="#475569" font-size="11">Directo</text>
<rect x="164" y="850" width="14" height="14" rx="3" fill="#1D4ED8"/><text x="184" y="861" fill="#475569" font-size="11">Transitivo d1</text>
<rect x="308" y="850" width="14" height="14" rx="3" fill="#60A5FA"/><text x="328" y="861" fill="#475569" font-size="11">Transitivo d2+</text>
<rect x="452" y="850" width="14" height="14" rx="3" fill="#94A3B8"/><text x="472" y="861" fill="#475569" font-size="11">Sin impacto</text>
<rect x="596" y="850" width="14" height="14" rx="3" fill="none" stroke="#64748B" stroke-width="1.5" stroke-dasharray="3,2"/><text x="616" y="861" fill="#475569" font-size="11">Expect/Actual</text>
</svg>