<svg xmlns="http://www.w3.org/2000/svg" viewBox="0 0 2250 1448" width="2250" height="1448" font-family="system-ui,sans-serif"><rect width="100%" height="100%" fill="#F5F4F0"/><text x="30" y="22" font-size="14" font-weight="700" fill="#1F2937">Propagation tree</text><text x="30" y="38" font-size="11" fill="#6B7280">Same hierarchy as the sunburst, flattened for reading.</text>
<path d="M 30.0 975.2 C 130.0 975.2, 130.0 602.5, 230.0 602.5" fill="none" stroke="#CBD5E1" stroke-width="1.4" stroke-opacity="0.85"/>
<path d="M 230.0 602.5 C 330.0 602.5, 330.0 361.0, 430.0 361.0" fill="none" stroke="#CBD5E1" stroke-width="1.4" stroke-opacity="0.85"/>
<path d="M 430.0 361.0 C 530.0 361.0, 530.0 220.0, 630.0 220.0" fill="none" stroke="#CBD5E1" stroke-width="1.4" stroke-opacity="0.85"/>
<path d="M 630.0 220.0 C 730.0 220.0, 730.0 52.0, 830.0 52.0" fill="none" stroke="#CBD5E1" stroke-width="1.4" stroke-opacity="0.85"/>
<path d="M 630.0 220.0 C 730.0 220.0, 730.0 76.0, 830.0 76.0" fill="none" stroke="#CBD5E1" stroke-width="1.4" stroke-opacity="0.85"/>
<path d="M 630.0 220.0 C 730.0 220.0, 730.0 100.0, 830.0 100.0" fill="none" stroke="#CBD5E1" stroke-width="1.4" stroke-opacity="0.85"/>
<path d="M 630.0 220.0 C 730.0 220.0, 730.0 124.0, 830.0 124.0" fill="none" stroke="#CBD5E1" stroke-width="1.4" stroke-opacity="0.85"/>
<path d="M 630.0 220.0 C 730.0 220.0, 730.0 184.0, 830.0 184.0" fill="none" stroke="#CBD5E1" stroke-width="1.4" stroke-opacity="0.85"/>
<path d="M 830.0 184.0 C 930.0 184.0, 930.0 148.0, 1030.0 148.0" fill="none" stroke="#CBD5E1" stroke-width="1.4" stroke-opacity="0.85"/>
<path d="M 830.0 184.0 C 930.0 184.0, 930.0 172.0, 1030.0 172.0" fill="none" stroke="#CBD5E1" stroke-width="1.4" stroke-opacity="0.85"/>
<path d="M 830.0 184.0 C 930.0 184.0, 930.0 196.0, 1030.0 196.0" fill="none" stroke="#CBD5E1" stroke-width="1.4" stroke-opacity="0.85"/>
<path d="M 830.0 184.0 C 930.0 184.0, 930.0 220.0, 1030.0 220.0" fill="none" stroke="#CBD5E1" stroke-width="1.4" stroke-opacity="0.85"/>
<path d="M 630.0 220.0 C 730.0 220.0, 730.0 280.0, 830.0 280.0" fill="none" stroke="#CBD5E1" stroke-width="1.4" stroke-opacity="0.85"/>
<path d="M 830.0 280.0 C 930.0 280.0, 930.0 244.0, 1030.0 244.0" fill="none" stroke="#CBD5E1" stroke-width="1.4" stroke-opacity="0.85"/>
<path d="M 830.0 280.0 C 930.0 280.0, 930.0 268.0, 1030.0 268.0" fill="none" stroke="#CBD5E1" stroke-width="1.4" stroke-opacity="0.85"/>
<path d="M 830.0 280.0 C 930.0 280.0, 930.0 292.0, 1030.0 292.0" fill="none" stroke="#CBD5E1" stroke-width="1.4" stroke-opacity="0.85"/>
<path d="M 830.0 280.0 C 930.0 280.0, 930.0 316.0, 1030.0 316.0" fill="none" stroke="#CBD5E1" stroke-width="1.4" stroke-opacity="0.85"/>
<path d="M 630.0 220.0 C 730.0 220.0, 730.0 352.0, 830.0 352.0" fill="none" stroke="#CBD5E1" stroke-width="1.4" stroke-opacity="0.85"/>
<path d="M 830.0 352.0 C 930.0 352.0, 930.0 340.0, 1030.0 340.0" fill="none" stroke="#CBD5E1" stroke-width="1.4" stroke-opacity="0.85"/>
<path d="M 830.0 352.0 C 930.0 352.0, 930.0 364.0, 1030.0 364.0" fill="none" stroke="#CBD5E1" stroke-width="1.4" stroke-opacity="0.85"/>
<path d="M 630.0 220.0 C 730.0 220.0, 730.0 388.0, 830.0 388.0" fill="none" stroke="#CBD5E1" stroke-width="1.4" stroke-opacity="0.85"/>
<path d="M 830.0 388.0 C 930.0 388.0, 930.0 388.0, 1030.0 388.0" fill="none" stroke="#CBD5E1" stroke-width="1.4" stroke-opacity="0.85"/>
<path d="M 430.0 361.0 C 530.0 361.0, 530.0 412.0, 630.0 412.0" fill="none" stroke="#CBD5E1" stroke-width="1.4" stroke-opacity="0.85"/>
<path d="M 630.0 412.0 C 730.0 412.0, 730.0 412.0, 830.0 412.0" fill="none" stroke="#CBD5E1" stroke-width="1.4" stroke-opacity="0.85"/>
<path d="M 430.0 361.0 C 530.0 361.0, 530.0 502.0, 630.0 502.0" fill="none" stroke="#CBD5E1" stroke-width="1.4" stroke-opacity="0.85"/>
<path d="M 630.0 502.0 C 730.0 502.0, 730.0 436.0, 830.0 436.0" fill="none" stroke="#CBD5E1" stroke-width="1.4" stroke-opacity="0.85"/>
<path d="M 630.0 502.0 C 730.0 502.0, 730.0 484.0, 830.0 484.0" fill="none" stroke="#CBD5E1" stroke-width="1.4" stroke-opacity="0.85"/>
<path d="M 830.0 484.0 C 930.0 484.0, 930.0 460.0, 1030.0 460.0" fill="none" stroke="#CBD5E1" stroke-width="1.4" stroke-opacity="0.85"/>
<path d="M 830.0 484.0 C 930.0 484.0, 930.0 484.0, 1030.0 484.0" fill="none" stroke="#CBD5E1" stroke-width="1.4" stroke-opacity="0.85"/>
<path d="M 830.0 484.0 C 930.0 484.0, 930.0 508.0, 1030.0 508.0" fill="none" stroke="#CBD5E1" stroke-width="1.4" stroke-opacity="0.85"/>
<path d="M 630.0 502.0 C 730.0 502.0, 730.0 532.0, 830.0 532.0" fill="none" stroke="#CBD5E1" stroke-width="1.4" stroke-opacity="0.85"/>
<path d="M 830.0 532.0 C 930.0 532.0, 930.0 532.0, 1030.0 532.0" fill="none" stroke="#CBD5E1" stroke-width="1.4" stroke-opacity="0.85"/>
<path d="M 630.0 502.0 C 730.0 502.0, 730.0 568.0, 830.0 568.0" fill="none" stroke="#CBD5E1" stroke-width="1.4" stroke-opacity="0.85"/>
<path d="M 830.0 568.0 C 930.0 568.0, 930.0 556.0, 1030.0 556.0" fill="none" stroke="#CBD5E1" stroke-width="1.4" stroke-opacity="0.85"/>
<path d="M 830.0 568.0 C 930.0 568.0, 930.0 580.0, 1030.0 580.0" fill="none" stroke="#CBD5E1" stroke-width="1.4" stroke-opacity="0.85"/>
<path d="M 230.0 602.5 C 330.0 602.5, 330.0 688.0, 430.0 688.0" fill="none" stroke="#CBD5E1" stroke-width="1.4" stroke-opacity="0.85"/>
<path d="M 430.0 688.0 C 530.0 688.0, 530.0 688.0, 630.0 688.0" fill="none" stroke="#CBD5E1" stroke-width="1.4" stroke-opacity="0.85"/>
<path d="M 630.0 688.0 C 730.0 688.0, 730.0 688.0, 830.0 688.0" fill="none" stroke="#CBD5E1" stroke-width="1.4" stroke-opacity="0.85"/>
<path d="M 830.0 688.0 C 930.0 688.0, 930.0 604.0, 1030.0 604.0" fill="none" stroke="#CBD5E1" stroke-width="1.4" stroke-opacity="0.85"/>
<path d="M 830.0 688.0 C 930.0 688.0, 930.0 646.0, 1030.0 646.0" fill="none" stroke="#CBD5E1" stroke-width="1.4" stroke-opacity="0.85"/>
<path d="M 1030.0 646.0 C 1130.0 646.0, 1130.0 628.0, 1230.0 628.0" fill="none" stroke="#CBD5E1" stroke-width="1.4" stroke-opacity="0.85"/>
<path d="M 1230.0 628.0 C 1330.0 628.0, 1330.0 628.0, 1430.0 628.0" fill="none" stroke="#CBD5E1" stroke-width="1.4" stroke-opacity="0.85"/>
<path d="M 1430.0 628.0 C 1530.0 628.0, 1530.0 628.0, 1630.0 628.0" fill="none" stroke="#CBD5E1" stroke-width="1.4" stroke-opacity="0.85"/>
<path d="M 1030.0 646.0 C 1130.0 646.0, 1130.0 664.0, 1230.0 664.0" fill="none" stroke="#CBD5E1" stroke-width="1.4" stroke-opacity="0.85"/>
<path d="M 1230.0 664.0 C 1330.0 664.0, 1330.0 652.0, 1430.0 652.0" fill="none" stroke="#CBD5E1" stroke-width="1.4" stroke-opacity="0.85"/>
<path d="M 1230.0 664.0 C 1330.0 664.0, 1330.0 676.0, 1430.0 676.0" fill="none" stroke="#CBD5E1" stroke-width="1.4" stroke-opacity="0.85"/>
<path d="M 1430.0 676.0 C 1530.0 676.0, 1530.0 676.0, 1630.0 676.0" fill="none" stroke="#CBD5E1" stroke-width="1.4" stroke-opacity="0.85"/>
<path d="M 830.0 688.0 C 930.0 688.0, 930.0 724.0, 1030.0 724.0" fill="none" stroke="#CBD5E1" stroke-width="1.4" stroke-opacity="0.85"/>
<path d="M 1030.0 724.0 C 1130.0 724.0, 1130.0 724.0, 1230.0 724.0" fill="none" stroke="#CBD5E1" stroke-width="1.4" stroke-opacity="0.85"/>
<path d="M 1230.0 724.0 C 1330.0 724.0, 1330.0 724.0, 1430.0 724.0" fill="none" stroke="#CBD5E1" stroke-width="1.4" stroke-opacity="0.85"/>
<path d="M 1430.0 724.0 C 1530.0 724.0, 1530.0 700.0, 1630.0 700.0" fill="none" stroke="#CBD5E1" stroke-width="1.4" stroke-opacity="0.85"/>
<path d="M 1430.0 724.0 C 1530.0 724.0, 1530.0 724.0, 1630.0 724.0" fill="none" stroke="#CBD5E1" stroke-width="1.4" stroke-opacity="0.85"/>
<path d="M 1430.0 724.0 C 1530.0 724.0, 1530.0 748.0, 1630.0 748.0" fill="none" stroke="#CBD5E1" stroke-width="1.4" stroke-opacity="0.85"/>
<path d="M 1630.0 748.0 C 1730.0 748.0, 1730.0 748.0, 1830.0 748.0" fill="none" stroke="#CBD5E1" stroke-width="1.4" stroke-opacity="0.85"/>
<path d="M 830.0 688.0 C 930.0 688.0, 930.0 772.0, 1030.0 772.0" fill="none" stroke="#CBD5E1" stroke-width="1.4" stroke-opacity="0.85"/>
<path d="M 1030.0 772.0 C 1130.0 772.0, 1130.0 772.0, 1230.0 772.0" fill="none" stroke="#CBD5E1" stroke-width="1.4" stroke-opacity="0.85"/>
<path d="M 230.0 602.5 C 330.0 602.5, 330.0 796.0, 430.0 796.0" fill="none" stroke="#CBD5E1" stroke-width="1.4" stroke-opacity="0.85"/>
<path d="M 230.0 602.5 C 330.0 602.5, 330.0 820.0, 430.0 820.0" fill="none" stroke="#CBD5E1" stroke-width="1.4" stroke-opacity="0.85"/>
<path d="M 230.0 602.5 C 330.0 602.5, 330.0 844.0, 430.0 844.0" fill="none" stroke="#CBD5E1" stroke-width="1.4" stroke-opacity="0.85"/>
<path d="M 30.0 975.2 C 130.0 975.2, 130.0 955.0, 230.0 955.0" fill="none" stroke="#CBD5E1" stroke-width="1.4" stroke-opacity="0.85"/>
<path d="M 230.0 955.0 C 330.0 955.0, 330.0 955.0, 430.0 955.0" fill="none" stroke="#CBD5E1" stroke-width="1.4" stroke-opacity="0.85"/>
<path d="M 430.0 955.0 C 530.0 955.0, 530.0 955.0, 630.0 955.0" fill="none" stroke="#CBD5E1" stroke-width="1.4" stroke-opacity="0.85"/>
<path d="M 630.0 955.0 C 730.0 955.0, 730.0 955.0, 830.0 955.0" fill="none" stroke="#CBD5E1" stroke-width="1.4" stroke-opacity="0.85"/>
<path d="M 830.0 955.0 C 930.0 955.0, 930.0 886.0, 1030.0 886.0" fill="none" stroke="#CBD5E1" stroke-width="1.4" stroke-opacity="0.85"/>
<path d="M 1030.0 886.0 C 1130.0 886.0, 1130.0 868.0, 1230.0 868.0" fill="none" stroke="#CBD5E1" stroke-width="1.4" stroke-opacity="0.85"/>
<path d="M 1230.0 868.0 C 1330.0 868.0, 1330.0 868.0, 1430.0 868.0" fill="none" stroke="#CBD5E1" stroke-width="1.4" stroke-opacity="0.85"/>
<path d="M 1030.0 886.0 C 1130.0 886.0, 1130.0 904.0, 1230.0 904.0" fill="none" stroke="#CBD5E1" stroke-width="1.4" stroke-opacity="0.85"/>
<path d="M 1230.0 904.0 C 1330.0 904.0, 1330.0 892.0, 1430.0 892.0" fill="none" stroke="#CBD5E1" stroke-width="1.4" stroke-opacity="0.85"/>
<path d="M 1230.0 904.0 C 1330.0 904.0, 1330.0 916.0, 1430.0 916.0" fill="none" stroke="#CBD5E1" stroke-width="1.4" stroke-opacity="0.85"/>
<path d="M 830.0 955.0 C 930.0 955.0, 930.0 940.0, 1030.0 940.0" fill="none" stroke="#CBD5E1" stroke-width="1.4" stroke-opacity="0.85"/>
<path d="M 830.0 955.0 C 930.0 955.0, 930.0 976.0, 1030.0 976.0" fill="none" stroke="#CBD5E1" stroke-width="1.4" stroke-opacity="0.85"/>
<path d="M 1030.0 976.0 C 1130.0 976.0, 1130.0 964.0, 1230.0 964.0" fill="none" stroke="#CBD5E1" stroke-width="1.4" stroke-opacity="0.85"/>
<path d="M 1030.0 976.0 C 1130.0 976.0, 1130.0 988.0, 1230.0 988.0" fill="none" stroke="#CBD5E1" stroke-width="1.4" stroke-opacity="0.85"/>
<path d="M 830.0 955.0 C 930.0 955.0, 930.0 1024.0, 1030.0 1024.0" fill="none" stroke="#CBD5E1" stroke-width="1.4" stroke-opacity="0.85"/>
<path d="M 1030.0 1024.0 C 1130.0 1024.0, 1130.0 1012.0, 1230.0 1012.0" fill="none" stroke="#CBD5E1" stroke-width="1.4" stroke-opacity="0.85"/>
<path d="M 1030.0 1024.0 C 1130.0 1024.0, 1130.0 1036.0, 1230.0 1036.0" fill="none" stroke="#CBD5E1" stroke-width="1.4" stroke-opacity="0.85"/>
<path d="M 30.0 975.2 C 130.0 975.2, 130.0 1180.0, 230.0 1180.0" fill="none" stroke="#CBD5E1" stroke-width="1.4" stroke-opacity="0.85"/>
<path d="M 230.0 1180.0 C 330.0 1180.0, 330.0 1180.0, 430.0 1180.0" fill="none" stroke="#CBD5E1" stroke-width="1.4" stroke-opacity="0.85"/>
<path d="M 430.0 1180.0 C 530.0 1180.0, 530.0 1180.0, 630.0 1180.0" fill="none" stroke="#CBD5E1" stroke-width="1.4" stroke-opacity="0.85"/>
<path d="M 630.0 1180.0 C 730.0 1180.0, 730.0 1180.0, 830.0 1180.0" fill="none" stroke="#CBD5E1" stroke-width="1.4" stroke-opacity="0.85"/>
<path d="M 830.0 1180.0 C 930.0 1180.0, 930.0 1084.0, 1030.0 1084.0" fill="none" stroke="#CBD5E1" stroke-width="1.4" stroke-opacity="0.85"/>
<path d="M 1030.0 1084.0 C 1130.0 1084.0, 1130.0 1060.0, 1230.0 1060.0" fill="none" stroke="#CBD5E1" stroke-width="1.4" stroke-opacity="0.85"/>
<path d="M 1030.0 1084.0 C 1130.0 1084.0, 1130.0 1084.0, 1230.0 1084.0" fill="none" stroke="#CBD5E1" stroke-width="1.4" stroke-opacity="0.85"/>
<path d="M 1230.0 1084.0 C 1330.0 1084.0, 1330.0 1084.0, 1430.0 1084.0" fill="none" stroke="#CBD5E1" stroke-width="1.4" stroke-opacity="0.85"/>
<path d="M 1030.0 1084.0 C 1130.0 1084.0, 1130.0 1108.0, 1230.0 1108.0" fill="none" stroke="#CBD5E1" stroke-width="1.4" stroke-opacity="0.85"/>
<path d="M 1230.0 1108.0 C 1330.0 1108.0, 1330.0 1108.0, 1430.0 1108.0" fill="none" stroke="#CBD5E1" stroke-width="1.4" stroke-opacity="0.85"/>
<path d="M 830.0 1180.0 C 930.0 1180.0, 930.0 1156.0, 1030.0 1156.0" fill="none" stroke="#CBD5E1" stroke-width="1.4" stroke-opacity="0.85"/>
<path d="M 1030.0 1156.0 C 1130.0 1156.0, 1130.0 1132.0, 1230.0 1132.0" fill="none" stroke="#CBD5E1" stroke-width="1.4" stroke-opacity="0.85"/>
<path d="M 1030.0 1156.0 C 1130.0 1156.0, 1130.0 1156.0, 1230.0 1156.0" fill="none" stroke="#CBD5E1" stroke-width="1.4" stroke-opacity="0.85"/>
<path d="M 1230.0 1156.0 C 1330.0 1156.0, 1330.0 1156.0, 1430.0 1156.0" fill="none" stroke="#CBD5E1" stroke-width="1.4" stroke-opacity="0.85"/>
<path d="M 1030.0 1156.0 C 1130.0 1156.0, 1130.0 1180.0, 1230.0 1180.0" fill="none" stroke="#CBD5E1" stroke-width="1.4" stroke-opacity="0.85"/>
<path d="M 1230.0 1180.0 C 1330.0 1180.0, 1330.0 1180.0, 1430.0 1180.0" fill="none" stroke="#CBD5E1" stroke-width="1.4" stroke-opacity="0.85"/>
<path d="M 830.0 1180.0 C 930.0 1180.0, 930.0 1204.0, 1030.0 1204.0" fill="none" stroke="#CBD5E1" stroke-width="1.4" stroke-opacity="0.85"/>
<path d="M 830.0 1180.0 C 930.0 1180.0, 930.0 1228.0, 1030.0 1228.0" fill="none" stroke="#CBD5E1" stroke-width="1.4" stroke-opacity="0.85"/>
<path d="M 830.0 1180.0 C 930.0 1180.0, 930.0 1252.0, 1030.0 1252.0" fill="none" stroke="#CBD5E1" stroke-width="1.4" stroke-opacity="0.85"/>
<path d="M 1030.0 1252.0 C 1130.0 1252.0, 1130.0 1252.0, 1230.0 1252.0" fill="none" stroke="#CBD5E1" stroke-width="1.4" stroke-opacity="0.85"/>
<path d="M 830.0 1180.0 C 930.0 1180.0, 930.0 1276.0, 1030.0 1276.0" fill="none" stroke="#CBD5E1" stroke-width="1.4" stroke-opacity="0.85"/>
<path d="M 1030.0 1276.0 C 1130.0 1276.0, 1130.0 1276.0, 1230.0 1276.0" fill="none" stroke="#CBD5E1" stroke-width="1.4" stroke-opacity="0.85"/>
<path d="M 30.0 975.2 C 130.0 975.2, 130.0 1348.0, 230.0 1348.0" fill="none" stroke="#CBD5E1" stroke-width="1.4" stroke-opacity="0.85"/>
<path d="M 230.0 1348.0 C 330.0 1348.0, 330.0 1348.0, 430.0 1348.0" fill="none" stroke="#CBD5E1" stroke-width="1.4" stroke-opacity="0.85"/>
<path d="M 430.0 1348.0 C 530.0 1348.0, 530.0 1348.0, 630.0 1348.0" fill="none" stroke="#CBD5E1" stroke-width="1.4" stroke-opacity="0.85"/>
<path d="M 630.0 1348.0 C 730.0 1348.0, 730.0 1348.0, 830.0 1348.0" fill="none" stroke="#CBD5E1" stroke-width="1.4" stroke-opacity="0.85"/>
<path d="M 830.0 1348.0 C 930.0 1348.0, 930.0 1348.0, 1030.0 1348.0" fill="none" stroke="#CBD5E1" stroke-width="1.4" stroke-opacity="0.85"/>
<path d="M 1030.0 1348.0 C 1130.0 1348.0, 1130.0 1348.0, 1230.0 1348.0" fill="none" stroke="#CBD5E1" stroke-width="1.4" stroke-opacity="0.85"/>
<path d="M 1230.0 1348.0 C 1330.0 1348.0, 1330.0 1300.0, 1430.0 1300.0" fill="none" stroke="#CBD5E1" stroke-width="1.4" stroke-opacity="0.85"/>
<path d="M 1230.0 1348.0 C 1330.0 1348.0, 1330.0 1324.0, 1430.0 1324.0" fill="none" stroke="#CBD5E1" stroke-width="1.4" stroke-opacity="0.85"/>
<path d="M 1230.0 1348.0 C 1330.0 1348.0, 1330.0 1360.0, 1430.0 1360.0" fill="none" stroke="#CBD5E1" stroke-width="1.4" stroke-opacity="0.85"/>
<path d="M 1430.0 1360.0 C 1530.0 1360.0, 1530.0 1360.0, 1630.0 1360.0" fill="none" stroke="#CBD5E1" stroke-width="1.4" stroke-opacity="0.85"/>
<path d="M 1630.0 1360.0 C 1730.0 1360.0, 1730.0 1348.0, 1830.0 1348.0" fill="none" stroke="#CBD5E1" stroke-width="1.4" stroke-opacity="0.85"/>
<path d="M 1630.0 1360.0 C 1730.0 1360.0, 1730.0 1372.0, 1830.0 1372.0" fill="none" stroke="#CBD5E1" stroke-width="1.4" stroke-opacity="0.85"/>
<path d="M 1230.0 1348.0 C 1330.0 1348.0, 1330.0 1396.0, 1430.0 1396.0" fill="none" stroke="#CBD5E1" stroke-width="1.4" stroke-opacity="0.85"/>
<path d="M 1430.0 1396.0 C 1530.0 1396.0, 1530.0 1396.0, 1630.0 1396.0" fill="none" stroke="#CBD5E1" stroke-width="1.4" stroke-opacity="0.85"/>
<circle cx="30.0" cy="975.2" r="6" fill="#FFF" stroke="#B91C1C" stroke-width="2.5"/>
<text x="20.0" y="979.2" font-size="11" font-weight="600" text-anchor="end" fill="#1F2937">src</text>
<circle cx="230.0" cy="602.5" r="5" fill="#FFF" stroke="#B91C1C" stroke-width="2.5"/>
<text x="220.0" y="606.5" font-size="11" font-weight="600" text-anchor="end" fill="#1F2937">commonMain</text>
<circle cx="430.0" cy="361.0" r="5" fill="#FFF" stroke="#B91C1C" stroke-width="2.5"/>
<text x="420.0" y="365.0" font-size="11" font-weight="600" text-anchor="end" fill="#1F2937">co.touchlab.droidcon</text>
<circle cx="630.0" cy="220.0" r="5" fill="#FFF" stroke="#1D4ED8" stroke-width="2.5"/>
<text x="620.0" y="224.0" font-size="11" font-weight="600" text-anchor="end" fill="#1F2937">ui</text>
<circle cx="830.0" cy="52.0" r="4" fill="#FFF" stroke="#60A5FA" stroke-width="2.5"/>
<text x="840.0" y="56.0" font-size="11" font-weight="500" text-anchor="start" fill="#1F2937">BottomNavigationView</text>
<circle cx="830.0" cy="76.0" r="4" fill="#FFF" stroke="#60A5FA" stroke-width="2.5"/>
<text x="840.0" y="80.0" font-size="11" font-weight="500" text-anchor="start" fill="#1F2937">FeedbackDialog</text>
<circle cx="830.0" cy="100.0" r="4" fill="#FFF" stroke="#60A5FA" stroke-width="2.5"/>
<text x="840.0" y="104.0" font-size="11" font-weight="500" text-anchor="start" fill="#1F2937">MainComposeView</text>
<circle cx="830.0" cy="124.0" r="4" fill="#FFF" stroke="#1D4ED8" stroke-width="2.5"/>
<text x="840.0" y="128.0" font-size="11" font-weight="500" text-anchor="start" fill="#1F2937">UiModule</text>
<circle cx="830.0" cy="184.0" r="5" fill="#FFF" stroke="#60A5FA" stroke-width="2.5"/>
<text x="820.0" y="188.0" font-size="11" font-weight="600" text-anchor="end" fill="#1F2937">session</text>
<circle cx="1030.0" cy="148.0" r="4" fill="#FFF" stroke="#60A5FA" stroke-width="2.5"/>
<text x="1040.0" y="152.0" font-size="11" font-weight="500" text-anchor="start" fill="#1F2937">SessionBlockView</text>
<circle cx="1030.0" cy="172.0" r="4" fill="#FFF" stroke="#60A5FA" stroke-width="2.5"/>
<text x="1040.0" y="176.0" font-size="11" font-weight="500" text-anchor="start" fill="#1F2937">SessionDetailView</text>
<circle cx="1030.0" cy="196.0" r="4" fill="#FFF" stroke="#60A5FA" stroke-width="2.5"/>
<text x="1040.0" y="200.0" font-size="11" font-weight="500" text-anchor="start" fill="#1F2937">SessionListView</text>
<circle cx="1030.0" cy="220.0" r="4" fill="#FFF" stroke="#60A5FA" stroke-width="2.5"/>
<text x="1040.0" y="224.0" font-size="11" font-weight="500" text-anchor="start" fill="#1F2937">SpeakerDetailView</text>
<circle cx="830.0" cy="280.0" r="5" fill="#FFF" stroke="#60A5FA" stroke-width="2.5"/>
<text x="820.0" y="284.0" font-size="11" font-weight="600" text-anchor="end" fill="#1F2937">settings</text>
<circle cx="1030.0" cy="244.0" r="4" fill="#FFF" stroke="#60A5FA" stroke-width="2.5"/>
<text x="1040.0" y="248.0" font-size="11" font-weight="500" text-anchor="start" fill="#1F2937">AboutView</text>
<circle cx="1030.0" cy="268.0" r="4" fill="#FFF" stroke="#60A5FA" stroke-width="2.5"/>
<text x="1040.0" y="272.0" font-size="11" font-weight="500" text-anchor="start" fill="#1F2937">ConferenceSelector</text>
<circle cx="1030.0" cy="292.0" r="4" fill="#FFF" stroke="#60A5FA" stroke-width="2.5"/>
<text x="1040.0" y="296.0" font-size="11" font-weight="500" text-anchor="start" fill="#1F2937">PlatformSpecificSettings</text>
<circle cx="1030.0" cy="316.0" r="4" fill="#FFF" stroke="#60A5FA" stroke-width="2.5"/>
<text x="1040.0" y="320.0" font-size="11" font-weight="500" text-anchor="start" fill="#1F2937">SettingsView</text>
<circle cx="830.0" cy="352.0" r="5" fill="#FFF" stroke="#1D4ED8" stroke-width="2.5"/>
<text x="820.0" y="356.0" font-size="11" font-weight="600" text-anchor="end" fill="#1F2937">sponsors</text>
<circle cx="1030.0" cy="340.0" r="4" fill="#FFF" stroke="#1D4ED8" stroke-width="2.5"/>
<text x="1040.0" y="344.0" font-size="11" font-weight="500" text-anchor="start" fill="#1F2937">SponsorDetailView</text>
<circle cx="1030.0" cy="364.0" r="4" fill="#FFF" stroke="#1D4ED8" stroke-width="2.5"/>
<text x="1040.0" y="368.0" font-size="11" font-weight="500" text-anchor="start" fill="#1F2937">SponsorsView</text>
<circle cx="830.0" cy="388.0" r="5" fill="#FFF" stroke="#7C3AED" stroke-width="2.5"/>
<text x="820.0" y="392.0" font-size="11" font-weight="600" text-anchor="end" fill="#1F2937">util</text>
<circle cx="1030.0" cy="388.0" r="4" fill="#FFF" stroke="#7C3AED" stroke-width="2.5"/>
<text x="1040.0" y="392.0" font-size="11" font-weight="500" text-anchor="start" fill="#1F2937">NavigationBackPressWrapper</text>
<circle cx="630.0" cy="412.0" r="5" fill="#FFF" stroke="#60A5FA" stroke-width="2.5"/>
<text x="620.0" y="416.0" font-size="11" font-weight="600" text-anchor="end" fill="#1F2937">util</text>
<circle cx="830.0" cy="412.0" r="4" fill="#FFF" stroke="#60A5FA" stroke-width="2.5"/>
<text x="840.0" y="416.0" font-size="11" font-weight="500" text-anchor="start" fill="#1F2937">NavigationController</text>
<circle cx="630.0" cy="502.0" r="5" fill="#FFF" stroke="#B91C1C" stroke-width="2.5"/>
<text x="620.0" y="506.0" font-size="11" font-weight="600" text-anchor="end" fill="#1F2937">viewmodel</text>
<circle cx="830.0" cy="436.0" r="4" fill="#FFF" stroke="#1D4ED8" stroke-width="2.5"/>
<text x="840.0" y="440.0" font-size="11" font-weight="500" text-anchor="start" fill="#1F2937">ApplicationViewModel</text>
<circle cx="830.0" cy="484.0" r="5" fill="#FFF" stroke="#60A5FA" stroke-width="2.5"/>
<text x="820.0" y="488.0" font-size="11" font-weight="600" text-anchor="end" fill="#1F2937">session</text>
<circle cx="1030.0" cy="460.0" r="4" fill="#FFF" stroke="#60A5FA" stroke-width="2.5"/>
<text x="1040.0" y="464.0" font-size="11" font-weight="500" text-anchor="start" fill="#1F2937">SessionDayViewModel</text>
<circle cx="1030.0" cy="484.0" r="4" fill="#FFF" stroke="#60A5FA" stroke-width="2.5"/>
<text x="1040.0" y="488.0" font-size="11" font-weight="500" text-anchor="start" fill="#1F2937">SessionDetailViewModel</text>
<circle cx="1030.0" cy="508.0" r="4" fill="#FFF" stroke="#60A5FA" stroke-width="2.5"/>
<text x="1040.0" y="512.0" font-size="11" font-weight="500" text-anchor="start" fill="#1F2937">SpeakerDetailViewModel</text>
<circle cx="830.0" cy="532.0" r="5" fill="#FFF" stroke="#60A5FA" stroke-width="2.5"/>
<text x="820.0" y="536.0" font-size="11" font-weight="600" text-anchor="end" fill="#1F2937">settings</text>
<circle cx="1030.0" cy="532.0" r="4" fill="#FFF" stroke="#60A5FA" stroke-width="2.5"/>
<text x="1040.0" y="536.0" font-size="11" font-weight="500" text-anchor="start" fill="#1F2937">AboutViewModel</text>
<circle cx="830.0" cy="568.0" r="5" fill="#FFF" stroke="#B91C1C" stroke-width="2.5"/>
<text x="820.0" y="572.0" font-size="11" font-weight="600" text-anchor="end" fill="#1F2937">sponsor</text>
<circle cx="1030.0" cy="556.0" r="4" fill="#FFF" stroke="#60A5FA" stroke-width="2.5"/>
<text x="1040.0" y="560.0" font-size="11" font-weight="500" text-anchor="start" fill="#1F2937">SponsorDetailViewModel</text>
<circle cx="1030.0" cy="580.0" r="4" fill="#FFF" stroke="#B91C1C" stroke-width="2.5"/>
<text x="1040.0" y="584.0" font-size="11" font-weight="500" text-anchor="start" fill="#1F2937">SponsorGroupItemViewModel</text>
<circle cx="430.0" cy="688.0" r="5" fill="#FFF" stroke="#B91C1C" stroke-width="2.5"/>
<text x="420.0" y="692.0" font-size="11" font-weight="600" text-anchor="end" fill="#1F2937">co</text>
<circle cx="630.0" cy="688.0" r="5" fill="#FFF" stroke="#B91C1C" stroke-width="2.5"/>
<text x="620.0" y="692.0" font-size="11" font-weight="600" text-anchor="end" fill="#1F2937">touchlab</text>
<circle cx="830.0" cy="688.0" r="5" fill="#FFF" stroke="#B91C1C" stroke-width="2.5"/>
<text x="820.0" y="692.0" font-size="11" font-weight="600" text-anchor="end" fill="#1F2937">droidcon</text>
<circle cx="1030.0" cy="604.0" r="4" fill="#FFF" stroke="#B91C1C" stroke-width="2.5"/>
<text x="1040.0" y="608.0" font-size="11" font-weight="500" text-anchor="start" fill="#1F2937">Koin</text>
<circle cx="1030.0" cy="646.0" r="5" fill="#FFF" stroke="#60A5FA" stroke-width="2.5"/>
<text x="1020.0" y="650.0" font-size="11" font-weight="600" text-anchor="end" fill="#1F2937">application</text>
<circle cx="1230.0" cy="628.0" r="5" fill="#FFF" stroke="#60A5FA" stroke-width="2.5"/>
<text x="1220.0" y="632.0" font-size="11" font-weight="600" text-anchor="end" fill="#1F2937">repository</text>
<circle cx="1430.0" cy="628.0" r="5" fill="#FFF" stroke="#60A5FA" stroke-width="2.5"/>
<text x="1420.0" y="632.0" font-size="11" font-weight="600" text-anchor="end" fill="#1F2937">impl</text>
<circle cx="1630.0" cy="628.0" r="4" fill="#FFF" stroke="#60A5FA" stroke-width="2.5"/>
<text x="1640.0" y="632.0" font-size="11" font-weight="500" text-anchor="start" fill="#1F2937">DefaultAboutRepository</text>
<circle cx="1230.0" cy="664.0" r="5" fill="#FFF" stroke="#60A5FA" stroke-width="2.5"/>
<text x="1220.0" y="668.0" font-size="11" font-weight="600" text-anchor="end" fill="#1F2937">service</text>
<circle cx="1430.0" cy="652.0" r="4" fill="#FFF" stroke="#60A5FA" stroke-width="2.5"/>
<text x="1440.0" y="656.0" font-size="11" font-weight="500" text-anchor="start" fill="#1F2937">NotificationService</text>
<circle cx="1430.0" cy="676.0" r="5" fill="#FFF" stroke="#60A5FA" stroke-width="2.5"/>
<text x="1420.0" y="680.0" font-size="11" font-weight="600" text-anchor="end" fill="#1F2937">impl</text>
<circle cx="1630.0" cy="676.0" r="4" fill="#FFF" stroke="#60A5FA" stroke-width="2.5"/>
<text x="1640.0" y="680.0" font-size="11" font-weight="500" text-anchor="start" fill="#1F2937">DefaultNotificationSchedu…</text>
<circle cx="1030.0" cy="724.0" r="5" fill="#FFF" stroke="#B91C1C" stroke-width="2.5"/>
<text x="1020.0" y="728.0" font-size="11" font-weight="600" text-anchor="end" fill="#1F2937">domain</text>
<circle cx="1230.0" cy="724.0" r="5" fill="#FFF" stroke="#B91C1C" stroke-width="2.5"/>
<text x="1220.0" y="728.0" font-size="11" font-weight="600" text-anchor="end" fill="#1F2937">service</text>
<circle cx="1430.0" cy="724.0" r="5" fill="#FFF" stroke="#B91C1C" stroke-width="2.5"/>
<text x="1420.0" y="728.0" font-size="11" font-weight="600" text-anchor="end" fill="#1F2937">impl</text>
<circle cx="1630.0" cy="700.0" r="4" fill="#FFF" stroke="#B91C1C" stroke-width="2.5"/>
<text x="1640.0" y="704.0" font-size="11" font-weight="500" text-anchor="start" fill="#1F2937">DefaultApiDataSource</text>
<circle cx="1630.0" cy="724.0" r="4" fill="#FFF" stroke="#B91C1C" stroke-width="2.5"/>
<text x="1640.0" y="728.0" font-size="11" font-weight="500" text-anchor="start" fill="#1F2937">DefaultServerApi</text>
<circle cx="1630.0" cy="748.0" r="5" fill="#FFF" stroke="#1D4ED8" stroke-width="2.5"/>
<text x="1620.0" y="752.0" font-size="11" font-weight="600" text-anchor="end" fill="#1F2937">json</text>
<circle cx="1830.0" cy="748.0" r="4" fill="#FFF" stroke="#1D4ED8" stroke-width="2.5"/>
<text x="1840.0" y="752.0" font-size="11" font-weight="500" text-anchor="start" fill="#1F2937">JsonResourceReader</text>
<circle cx="1030.0" cy="772.0" r="5" fill="#FFF" stroke="#60A5FA" stroke-width="2.5"/>
<text x="1020.0" y="776.0" font-size="11" font-weight="600" text-anchor="end" fill="#1F2937">service</text>
<circle cx="1230.0" cy="772.0" r="4" fill="#FFF" stroke="#60A5FA" stroke-width="2.5"/>
<text x="1240.0" y="776.0" font-size="11" font-weight="500" text-anchor="start" fill="#1F2937">DeepLinkNotificationHandl…</text>
<circle cx="430.0" cy="796.0" r="4" fill="#FFF" stroke="#1D4ED8" stroke-width="2.5"/>
<text x="440.0" y="800.0" font-size="11" font-weight="500" text-anchor="start" fill="#1F2937">AppModule</text>
<circle cx="430.0" cy="820.0" r="4" fill="#FFF" stroke="#B91C1C" stroke-width="2.5"/>
<text x="440.0" y="824.0" font-size="11" font-weight="500" text-anchor="start" fill="#1F2937">CommonModule</text>
<circle cx="430.0" cy="844.0" r="4" fill="#FFF" stroke="#1D4ED8" stroke-width="2.5"/>
<text x="440.0" y="848.0" font-size="11" font-weight="500" text-anchor="start" fill="#1F2937">ViewModel</text>
<circle cx="230.0" cy="955.0" r="5" fill="#FFF" stroke="#B91C1C" stroke-width="2.5"/>
<text x="220.0" y="959.0" font-size="11" font-weight="600" text-anchor="end" fill="#1F2937">androidMain</text>
<circle cx="430.0" cy="955.0" r="5" fill="#FFF" stroke="#B91C1C" stroke-width="2.5"/>
<text x="420.0" y="959.0" font-size="11" font-weight="600" text-anchor="end" fill="#1F2937">co</text>
<circle cx="630.0" cy="955.0" r="5" fill="#FFF" stroke="#B91C1C" stroke-width="2.5"/>
<text x="620.0" y="959.0" font-size="11" font-weight="600" text-anchor="end" fill="#1F2937">touchlab</text>
<circle cx="830.0" cy="955.0" r="5" fill="#FFF" stroke="#B91C1C" stroke-width="2.5"/>
<text x="820.0" y="959.0" font-size="11" font-weight="600" text-anchor="end" fill="#1F2937">droidcon</text>
<circle cx="1030.0" cy="886.0" r="5" fill="#FFF" stroke="#60A5FA" stroke-width="2.5"/>
<text x="1020.0" y="890.0" font-size="11" font-weight="600" text-anchor="end" fill="#1F2937">ui</text>
<circle cx="1230.0" cy="868.0" r="5" fill="#FFF" stroke="#60A5FA" stroke-width="2.5"/>
<text x="1220.0" y="872.0" font-size="11" font-weight="600" text-anchor="end" fill="#1F2937">settings</text>
<circle cx="1430.0" cy="868.0" r="4" fill="#FFF" stroke="#60A5FA" stroke-width="2.5"/>
<text x="1440.0" y="872.0" font-size="11" font-weight="500" text-anchor="start" fill="#1F2937">PlatformSpecificSettings</text>
<circle cx="1230.0" cy="904.0" r="5" fill="#FFF" stroke="#60A5FA" stroke-width="2.5"/>
<text x="1220.0" y="908.0" font-size="11" font-weight="600" text-anchor="end" fill="#1F2937">util</text>
<circle cx="1430.0" cy="892.0" r="4" fill="#FFF" stroke="#60A5FA" stroke-width="2.5"/>
<text x="1440.0" y="896.0" font-size="11" font-weight="500" text-anchor="start" fill="#1F2937">MainView</text>
<circle cx="1430.0" cy="916.0" r="4" fill="#FFF" stroke="#7C3AED" stroke-width="2.5"/>
<text x="1440.0" y="920.0" font-size="11" font-weight="500" text-anchor="start" fill="#1F2937">NavigationBackPressWrapper</text>
<circle cx="1030.0" cy="940.0" r="4" fill="#FFF" stroke="#B91C1C" stroke-width="2.5"/>
<text x="1040.0" y="944.0" font-size="11" font-weight="500" text-anchor="start" fill="#1F2937">Koin.android</text>
<circle cx="1030.0" cy="976.0" r="5" fill="#FFF" stroke="#60A5FA" stroke-width="2.5"/>
<text x="1020.0" y="980.0" font-size="11" font-weight="600" text-anchor="end" fill="#1F2937">service</text>
<circle cx="1230.0" cy="964.0" r="4" fill="#FFF" stroke="#60A5FA" stroke-width="2.5"/>
<text x="1240.0" y="968.0" font-size="11" font-weight="500" text-anchor="start" fill="#1F2937">AndroidNotificationService</text>
<circle cx="1230.0" cy="988.0" r="4" fill="#FFF" stroke="#60A5FA" stroke-width="2.5"/>
<text x="1240.0" y="992.0" font-size="11" font-weight="500" text-anchor="start" fill="#1F2937">NotificationRescheduler</text>
<circle cx="1030.0" cy="1024.0" r="5" fill="#FFF" stroke="#1D4ED8" stroke-width="2.5"/>
<text x="1020.0" y="1028.0" font-size="11" font-weight="600" text-anchor="end" fill="#1F2937">util</text>
<circle cx="1230.0" cy="1012.0" r="4" fill="#FFF" stroke="#1D4ED8" stroke-width="2.5"/>
<text x="1240.0" y="1016.0" font-size="11" font-weight="500" text-anchor="start" fill="#1F2937">AssetResourceReader</text>
<circle cx="1230.0" cy="1036.0" r="4" fill="#FFF" stroke="#1D4ED8" stroke-width="2.5"/>
<text x="1240.0" y="1040.0" font-size="11" font-weight="500" text-anchor="start" fill="#1F2937">ClasspathResourceReader</text>
<circle cx="230.0" cy="1180.0" r="5" fill="#FFF" stroke="#B91C1C" stroke-width="2.5"/>
<text x="220.0" y="1184.0" font-size="11" font-weight="600" text-anchor="end" fill="#1F2937">iosMain</text>
<circle cx="430.0" cy="1180.0" r="5" fill="#FFF" stroke="#B91C1C" stroke-width="2.5"/>
<text x="420.0" y="1184.0" font-size="11" font-weight="600" text-anchor="end" fill="#1F2937">co</text>
<circle cx="630.0" cy="1180.0" r="5" fill="#FFF" stroke="#B91C1C" stroke-width="2.5"/>
<text x="620.0" y="1184.0" font-size="11" font-weight="600" text-anchor="end" fill="#1F2937">touchlab</text>
<circle cx="830.0" cy="1180.0" r="5" fill="#FFF" stroke="#B91C1C" stroke-width="2.5"/>
<text x="820.0" y="1184.0" font-size="11" font-weight="600" text-anchor="end" fill="#1F2937">droidcon</text>
<circle cx="1030.0" cy="1084.0" r="5" fill="#FFF" stroke="#1D4ED8" stroke-width="2.5"/>
<text x="1020.0" y="1088.0" font-size="11" font-weight="600" text-anchor="end" fill="#1F2937">ios</text>
<circle cx="1230.0" cy="1060.0" r="4" fill="#FFF" stroke="#1D4ED8" stroke-width="2.5"/>
<text x="1240.0" y="1064.0" font-size="11" font-weight="500" text-anchor="start" fill="#1F2937">DependencyInjection</text>
<circle cx="1230.0" cy="1084.0" r="5" fill="#FFF" stroke="#60A5FA" stroke-width="2.5"/>
<text x="1220.0" y="1088.0" font-size="11" font-weight="600" text-anchor="end" fill="#1F2937">service</text>
<circle cx="1430.0" cy="1084.0" r="4" fill="#FFF" stroke="#60A5FA" stroke-width="2.5"/>
<text x="1440.0" y="1088.0" font-size="11" font-weight="500" text-anchor="start" fill="#1F2937">DefaultParseUrlViewService</text>
<circle cx="1230.0" cy="1108.0" r="5" fill="#FFF" stroke="#60A5FA" stroke-width="2.5"/>
<text x="1220.0" y="1112.0" font-size="11" font-weight="600" text-anchor="end" fill="#1F2937">util</text>
<circle cx="1430.0" cy="1108.0" r="4" fill="#FFF" stroke="#60A5FA" stroke-width="2.5"/>
<text x="1440.0" y="1112.0" font-size="11" font-weight="500" text-anchor="start" fill="#1F2937">NotificationLocalizedStri…</text>
<circle cx="1030.0" cy="1156.0" r="5" fill="#FFF" stroke="#60A5FA" stroke-width="2.5"/>
<text x="1020.0" y="1160.0" font-size="11" font-weight="600" text-anchor="end" fill="#1F2937">ui</text>
<circle cx="1230.0" cy="1132.0" r="4" fill="#FFF" stroke="#60A5FA" stroke-width="2.5"/>
<text x="1240.0" y="1136.0" font-size="11" font-weight="500" text-anchor="start" fill="#1F2937">ComposeRootController</text>
<circle cx="1230.0" cy="1156.0" r="5" fill="#FFF" stroke="#60A5FA" stroke-width="2.5"/>
<text x="1220.0" y="1160.0" font-size="11" font-weight="600" text-anchor="end" fill="#1F2937">settings</text>
<circle cx="1430.0" cy="1156.0" r="4" fill="#FFF" stroke="#60A5FA" stroke-width="2.5"/>
<text x="1440.0" y="1160.0" font-size="11" font-weight="500" text-anchor="start" fill="#1F2937">PlatformSpecificSettings</text>
<circle cx="1230.0" cy="1180.0" r="5" fill="#FFF" stroke="#60A5FA" stroke-width="2.5"/>
<text x="1220.0" y="1184.0" font-size="11" font-weight="600" text-anchor="end" fill="#1F2937">util</text>
<circle cx="1430.0" cy="1180.0" r="4" fill="#FFF" stroke="#60A5FA" stroke-width="2.5"/>
<text x="1440.0" y="1184.0" font-size="11" font-weight="500" text-anchor="start" fill="#1F2937">NavigationBackPressWrapper</text>
<circle cx="1030.0" cy="1204.0" r="4" fill="#FFF" stroke="#B91C1C" stroke-width="2.5"/>
<text x="1040.0" y="1208.0" font-size="11" font-weight="500" text-anchor="start" fill="#1F2937">Koin.ios</text>
<circle cx="1030.0" cy="1228.0" r="4" fill="#FFF" stroke="#60A5FA" stroke-width="2.5"/>
<text x="1040.0" y="1232.0" font-size="11" font-weight="500" text-anchor="start" fill="#1F2937">MainScope</text>
<circle cx="1030.0" cy="1252.0" r="5" fill="#FFF" stroke="#60A5FA" stroke-width="2.5"/>
<text x="1020.0" y="1256.0" font-size="11" font-weight="600" text-anchor="end" fill="#1F2937">service</text>
<circle cx="1230.0" cy="1252.0" r="4" fill="#FFF" stroke="#60A5FA" stroke-width="2.5"/>
<text x="1240.0" y="1256.0" font-size="11" font-weight="500" text-anchor="start" fill="#1F2937">IOSNotificationService</text>
<circle cx="1030.0" cy="1276.0" r="5" fill="#FFF" stroke="#1D4ED8" stroke-width="2.5"/>
<text x="1020.0" y="1280.0" font-size="11" font-weight="600" text-anchor="end" fill="#1F2937">util</text>
<circle cx="1230.0" cy="1276.0" r="4" fill="#FFF" stroke="#1D4ED8" stroke-width="2.5"/>
<text x="1240.0" y="1280.0" font-size="11" font-weight="500" text-anchor="start" fill="#1F2937">BundleResourceReader</text>
<circle cx="230.0" cy="1348.0" r="5" fill="#FFF" stroke="#1D4ED8" stroke-width="2.5"/>
<text x="220.0" y="1352.0" font-size="11" font-weight="600" text-anchor="end" fill="#1F2937">main</text>
<circle cx="430.0" cy="1348.0" r="5" fill="#FFF" stroke="#1D4ED8" stroke-width="2.5"/>
<text x="420.0" y="1352.0" font-size="11" font-weight="600" text-anchor="end" fill="#1F2937">java</text>
<circle cx="630.0" cy="1348.0" r="5" fill="#FFF" stroke="#1D4ED8" stroke-width="2.5"/>
<text x="620.0" y="1352.0" font-size="11" font-weight="600" text-anchor="end" fill="#1F2937">co</text>
<circle cx="830.0" cy="1348.0" r="5" fill="#FFF" stroke="#1D4ED8" stroke-width="2.5"/>
<text x="820.0" y="1352.0" font-size="11" font-weight="600" text-anchor="end" fill="#1F2937">touchlab</text>
<circle cx="1030.0" cy="1348.0" r="5" fill="#FFF" stroke="#1D4ED8" stroke-width="2.5"/>
<text x="1020.0" y="1352.0" font-size="11" font-weight="600" text-anchor="end" fill="#1F2937">droidcon</text>
<circle cx="1230.0" cy="1348.0" r="5" fill="#FFF" stroke="#1D4ED8" stroke-width="2.5"/>
<text x="1220.0" y="1352.0" font-size="11" font-weight="600" text-anchor="end" fill="#1F2937">android</text>
<circle cx="1430.0" cy="1300.0" r="4" fill="#FFF" stroke="#60A5FA" stroke-width="2.5"/>
<text x="1440.0" y="1304.0" font-size="11" font-weight="500" text-anchor="start" fill="#1F2937">MainActivity</text>
<circle cx="1430.0" cy="1324.0" r="4" fill="#FFF" stroke="#1D4ED8" stroke-width="2.5"/>
<text x="1440.0" y="1328.0" font-size="11" font-weight="500" text-anchor="start" fill="#1F2937">MainApp</text>
<circle cx="1430.0" cy="1360.0" r="5" fill="#FFF" stroke="#60A5FA" stroke-width="2.5"/>
<text x="1420.0" y="1364.0" font-size="11" font-weight="600" text-anchor="end" fill="#1F2937">service</text>
<circle cx="1630.0" cy="1360.0" r="5" fill="#FFF" stroke="#60A5FA" stroke-width="2.5"/>
<text x="1620.0" y="1364.0" font-size="11" font-weight="600" text-anchor="end" fill="#1F2937">impl</text>
<circle cx="1830.0" cy="1348.0" r="4" fill="#FFF" stroke="#60A5FA" stroke-width="2.5"/>
<text x="1840.0" y="1352.0" font-size="11" font-weight="500" text-anchor="start" fill="#1F2937">DefaultFirebaseMessagingS…</text>
<circle cx="1830.0" cy="1372.0" r="4" fill="#FFF" stroke="#60A5FA" stroke-width="2.5"/>
<text x="1840.0" y="1376.0" font-size="11" font-weight="500" text-anchor="start" fill="#1F2937">DefaultParseUrlViewService</text>
<circle cx="1430.0" cy="1396.0" r="5" fill="#FFF" stroke="#60A5FA" stroke-width="2.5"/>
<text x="1420.0" y="1400.0" font-size="11" font-weight="600" text-anchor="end" fill="#1F2937">util</text>
<circle cx="1630.0" cy="1396.0" r="4" fill="#FFF" stroke="#60A5FA" stroke-width="2.5"/>
<text x="1640.0" y="1400.0" font-size="11" font-weight="500" text-anchor="start" fill="#1F2937">NotificationLocalizedStri…</text>
</svg>